<svg width="52" height="52" viewBox="0 0 52 52" fill="none" xmlns="http://www.w3.org/2000/svg">
<path d="M36.8333 8.66666C39.2296 8.66666 41.0691 10.4932 42.4319 12.4583L42.8934 13.1538L43.3159 13.8472C43.4503 14.0739 43.5788 14.2964 43.7016 14.5145C45.4068 17.563 46.8909 21.5432 47.8724 25.4757C48.8474 29.3778 49.3869 33.4533 49.0424 36.6578C48.6958 39.8753 47.0383 43.3333 43.3333 43.3333C40.0096 43.3333 37.3901 41.5567 35.2624 39.8212L32.8574 37.804C30.8576 36.166 28.6693 34.6667 25.9999 34.6667C23.3306 34.6667 21.1401 36.166 19.1446 37.804L16.7396 39.819C14.6076 41.5567 11.9881 43.3333 8.66661 43.3333C4.95944 43.3333 3.30194 39.8753 2.95744 36.6578C2.61511 33.4512 3.15244 29.3778 4.12744 25.4757C5.10894 21.5432 6.59311 17.563 8.29828 14.5145L8.68394 13.845L9.10644 13.1538L9.56794 12.4583C10.9308 10.4932 12.7703 8.66666 15.1666 8.66666C16.2716 8.66666 17.3701 8.93532 18.4491 9.25166L19.7339 9.64599C19.9463 9.71099 20.1572 9.7731 20.3666 9.83232C22.2408 10.3697 24.1583 10.8333 25.9999 10.8333C27.8416 10.8333 29.7591 10.3697 31.6333 9.83232L33.5508 9.25382C34.6298 8.93532 35.7283 8.66666 36.8333 8.66666ZM18.4166 17.3333C16.98 17.3333 15.6023 17.904 14.5864 18.9198C13.5706 19.9357 12.9999 21.3134 12.9999 22.75C12.9999 24.1866 13.5706 25.5643 14.5864 26.5802C15.6023 27.596 16.98 28.1667 18.4166 28.1667C19.8532 28.1667 21.231 27.596 22.2468 26.5802C23.2626 25.5643 23.8333 24.1866 23.8333 22.75C23.8333 21.3134 23.2626 19.9357 22.2468 18.9198C21.231 17.904 19.8532 17.3333 18.4166 17.3333ZM33.5833 17.3333C33.0086 17.3333 32.4575 17.5616 32.0512 17.9679C31.6449 18.3743 31.4166 18.9254 31.4166 19.5V20.5833H30.3333C29.7586 20.5833 29.2075 20.8116 28.8012 21.2179C28.3949 21.6243 28.1666 22.1754 28.1666 22.75C28.1666 23.3246 28.3949 23.8757 28.8012 24.2821C29.2075 24.6884 29.7586 24.9167 30.3333 24.9167H31.4166V26C31.4166 26.5746 31.6449 27.1257 32.0512 27.5321C32.4575 27.9384 33.0086 28.1667 33.5833 28.1667C34.1579 28.1667 34.709 27.9384 35.1153 27.5321C35.5217 27.1257 35.7499 26.5746 35.7499 26V24.9167H36.8333C37.4079 24.9167 37.959 24.6884 38.3653 24.2821C38.7717 23.8757 38.9999 23.3246 38.9999 22.75C38.9999 22.1754 38.7717 21.6243 38.3653 21.2179C37.959 20.8116 37.4079 20.5833 36.8333 20.5833H35.7499V19.5C35.7499 18.9254 35.5217 18.3743 35.1153 17.9679C34.709 17.5616 34.1579 17.3333 33.5833 17.3333ZM18.4166 21.6667C18.7039 21.6667 18.9795 21.7808 19.1826 21.984C19.3858 22.1871 19.4999 22.4627 19.4999 22.75C19.4999 23.0373 19.3858 23.3129 19.1826 23.516C18.9795 23.7192 18.7039 23.8333 18.4166 23.8333C18.1293 23.8333 17.8537 23.7192 17.6506 23.516C17.4474 23.3129 17.3333 23.0373 17.3333 22.75C17.3333 22.4627 17.4474 22.1871 17.6506 21.984C17.8537 21.7808 18.1293 21.6667 18.4166 21.6667Z" fill="black"/>
</svg>
