<svg width="35" height="35" viewBox="0 0 35 35" fill="none" xmlns="http://www.w3.org/2000/svg">
<path d="M7.17614 30.14H27.2695C28.8482 30.14 30.14 28.8482 30.14 27.2695V15.7876H27.2695V27.2695H7.17614V7.17614H18.658V4.30566H7.17614C5.59738 4.30566 4.30566 5.59738 4.30566 7.17614V27.2695C4.30566 28.8482 5.59738 30.14 7.17614 30.14Z" fill="#FFFEFE"/>
<path d="M10.0469 20.0934V22.9639C10.0469 23.7533 10.6927 24.3991 11.4821 24.3991H14.3526C14.7401 24.3991 15.0989 24.2413 15.3716 23.9829L26.3512 13.0033L21.457 8.10919L10.4774 19.0888C10.3444 19.2229 10.2392 19.3819 10.1678 19.5568C10.0963 19.7316 10.0601 19.9189 10.0612 20.1078L10.0469 20.0934ZM29.724 9.63054C29.857 9.49776 29.9626 9.34004 30.0346 9.16642C30.1066 8.99279 30.1437 8.80667 30.1437 8.6187C30.1437 8.43073 30.1066 8.2446 30.0346 8.07097C29.9626 7.89735 29.857 7.73963 29.724 7.60685L26.8535 4.73638C26.7207 4.60333 26.563 4.49777 26.3894 4.42574C26.2158 4.35372 26.0296 4.31665 25.8417 4.31665C25.6537 4.31665 25.4676 4.35372 25.2939 4.42574C25.1203 4.49777 24.9626 4.60333 24.8298 4.73638L22.4617 7.10452L27.3558 11.9987L29.724 9.63054Z" fill="#FFFEFE"/>
</svg>
