<svg width="34" height="35" viewBox="0 0 34 35" fill="none" xmlns="http://www.w3.org/2000/svg">
<path d="M7.08333 30.625H26.9167C28.475 30.625 29.75 29.3125 29.75 27.7083V16.0417H26.9167V27.7083H7.08333V7.29167H18.4167V4.375H7.08333C5.525 4.375 4.25 5.6875 4.25 7.29167V27.7083C4.25 29.3125 5.525 30.625 7.08333 30.625Z" fill="#FFFEFE"/>
<path d="M9.91699 20.4166V23.3333C9.91699 24.1354 10.5545 24.7916 11.3337 24.7916H14.167C14.5495 24.7916 14.9037 24.6312 15.1728 24.3687L26.0103 13.2125L21.1795 8.23955L10.342 19.3958C10.2107 19.5321 10.1068 19.6937 10.0363 19.8714C9.96582 20.049 9.93008 20.2393 9.93116 20.4312L9.91699 20.4166ZM29.3395 9.78538C29.4708 9.65047 29.575 9.49021 29.6461 9.31379C29.7172 9.13738 29.7538 8.94826 29.7538 8.75726C29.7538 8.56626 29.7172 8.37714 29.6461 8.20072C29.575 8.0243 29.4708 7.86405 29.3395 7.72913L26.5062 4.81247C26.3751 4.67727 26.2194 4.57002 26.048 4.49684C25.8767 4.42366 25.6929 4.38599 25.5074 4.38599C25.3219 4.38599 25.1382 4.42366 24.9668 4.49684C24.7954 4.57002 24.6397 4.67727 24.5087 4.81247L22.1712 7.21872L27.002 12.1916L29.3395 9.78538Z" fill="#FFFEFE"/>
</svg>
