<svg width="34" height="34" viewBox="0 0 34 34" fill="none" xmlns="http://www.w3.org/2000/svg">
<path d="M7.08333 29.75H26.9167C28.475 29.75 29.75 28.475 29.75 26.9167V15.5833H26.9167V26.9167H7.08333V7.08333H18.4167V4.25H7.08333C5.525 4.25 4.25 5.525 4.25 7.08333V26.9167C4.25 28.475 5.525 29.75 7.08333 29.75Z" fill="#FFFEFE"/>
<path d="M9.91699 19.8334V22.6667C9.91699 23.4459 10.5545 24.0834 11.3337 24.0834H14.167C14.5495 24.0834 14.9037 23.9275 15.1728 23.6725L26.0103 12.835L21.1795 8.0042L10.342 18.8417C10.2107 18.9741 10.1068 19.1311 10.0363 19.3037C9.96582 19.4763 9.93008 19.6611 9.93116 19.8475L9.91699 19.8334ZM29.3395 9.50587C29.4708 9.37481 29.575 9.21913 29.6461 9.04776C29.7172 8.87638 29.7538 8.69266 29.7538 8.50712C29.7538 8.32158 29.7172 8.13787 29.6461 7.96649C29.575 7.79511 29.4708 7.63943 29.3395 7.50837L26.5062 4.67504C26.3751 4.54371 26.2194 4.43952 26.048 4.36843C25.8767 4.29733 25.6929 4.26074 25.5074 4.26074C25.3219 4.26074 25.1382 4.29733 24.9668 4.36843C24.7954 4.43952 24.6397 4.54371 24.5087 4.67504L22.1712 7.01254L27.002 11.8434L29.3395 9.50587Z" fill="#FFFEFE"/>
</svg>
