<svg width="43" height="43" viewBox="0 0 43 43" fill="none" xmlns="http://www.w3.org/2000/svg">
<path d="M21.2749 8.86475C7.742 8.86475 3.67487 20.5963 3.63764 20.7151L3.44971 21.2753L3.63587 21.8356C3.67487 21.9544 7.742 33.6859 21.2749 33.6859C34.8077 33.6859 38.8748 21.9544 38.9121 21.8356L39.1 21.2753L38.9138 20.7151C38.8748 20.5963 34.8077 8.86475 21.2749 8.86475ZM21.2749 28.3671C17.3637 28.3671 14.1831 25.1864 14.1831 21.2753C14.1831 17.3642 17.3637 14.1836 21.2749 14.1836C25.186 14.1836 28.3666 17.3642 28.3666 21.2753C28.3666 25.1864 25.186 28.3671 21.2749 28.3671Z" fill="#FCF7F7"/>
<path d="M21.2754 17.7295C19.3535 17.7295 17.7295 19.3535 17.7295 21.2754C17.7295 23.1972 19.3535 24.8213 21.2754 24.8213C23.1972 24.8213 24.8213 23.1972 24.8213 21.2754C24.8213 19.3535 23.1972 17.7295 21.2754 17.7295Z" fill="#FCF7F7"/>
</svg>
