<svg width="42" height="43" viewBox="0 0 42 43" fill="none" xmlns="http://www.w3.org/2000/svg">
<path d="M20.9998 8.95825C7.64202 8.95825 3.62752 20.8137 3.59077 20.9338L3.40527 21.4999L3.58902 22.0661C3.62752 22.1861 7.64202 34.0416 20.9998 34.0416C34.3575 34.0416 38.372 22.1861 38.4088 22.0661L38.5943 21.4999L38.4105 20.9338C38.372 20.8137 34.3575 8.95825 20.9998 8.95825ZM20.9998 28.6666C17.1393 28.6666 13.9998 25.4523 13.9998 21.4999C13.9998 17.5475 17.1393 14.3333 20.9998 14.3333C24.8603 14.3333 27.9998 17.5475 27.9998 21.4999C27.9998 25.4523 24.8603 28.6666 20.9998 28.6666Z" fill="#FCF7F7"/>
<path d="M21 17.9167C19.103 17.9167 17.5 19.5579 17.5 21.5001C17.5 23.4422 19.103 25.0834 21 25.0834C22.897 25.0834 24.5 23.4422 24.5 21.5001C24.5 19.5579 22.897 17.9167 21 17.9167Z" fill="#FCF7F7"/>
</svg>
