<svg width="44" height="44" viewBox="0 0 44 44" fill="none" xmlns="http://www.w3.org/2000/svg">
<path d="M21.6862 26.9911C20.5719 26.9911 19.4827 27.3215 18.5563 27.9405C17.6298 28.5596 16.9077 29.4394 16.4813 30.4688C16.0549 31.4983 15.9434 32.631 16.1607 33.7238C16.3781 34.8166 16.9147 35.8205 17.7026 36.6083C18.4904 37.3962 19.4943 37.9328 20.5871 38.1502C21.6799 38.3675 22.8126 38.256 23.8421 37.8296C24.8715 37.4032 25.7513 36.6811 26.3704 35.7546C26.9894 34.8282 27.3198 33.739 27.3198 32.6247C27.3201 31.8849 27.1745 31.1522 26.8915 30.4685C26.6085 29.7849 26.1935 29.1637 25.6703 28.6406C25.1472 28.1174 24.526 27.7024 23.8424 27.4194C23.1587 27.1364 22.4261 26.9908 21.6862 26.9911ZM17.7447 30.3477C18.144 29.6556 18.7184 29.0808 19.4103 28.681C20.1021 28.2813 20.887 28.0707 21.686 28.0704C22.4851 28.0702 23.2701 28.2802 23.9622 28.6795C24.6544 29.0787 25.2292 29.6532 25.629 30.345L17.7447 30.3477Z" fill="white"/>
<path d="M29.4795 25.4134C31.1638 25.4134 32.5292 24.0481 32.5292 22.3638C32.5292 20.6796 31.1638 19.3142 29.4795 19.3142C27.7953 19.3142 26.4299 20.6796 26.4299 22.3638C26.4299 24.0481 27.7953 25.4134 29.4795 25.4134Z" fill="white"/>
<path d="M13.8926 25.4134C15.5769 25.4134 16.9423 24.0481 16.9423 22.3638C16.9423 20.6796 15.5769 19.3142 13.8926 19.3142C12.2084 19.3142 10.843 20.6796 10.843 22.3638C10.843 24.0481 12.2084 25.4134 13.8926 25.4134Z" fill="white"/>
<path d="M18.2923 13.2693C18.659 12.9514 17.6343 11.8725 17.3341 12.1348C16.2506 13.0495 14.9787 13.7141 13.609 14.0811C12.2393 14.4481 10.8055 14.5085 9.40982 14.258C9.01812 14.1814 8.67249 15.6276 9.14891 15.7191C10.7593 16.0081 12.4137 15.9384 13.9941 15.5149C15.5745 15.0915 17.0421 14.3247 18.2923 13.2693Z" fill="white"/>
<path d="M42.017 12.561C42.017 7.92017 37.6994 3.38979 37.6994 3.38979C37.6994 3.38979 36.4667 4.69029 35.3174 6.60341C31.5841 3.2203 26.7244 1.34928 21.6862 1.35536C10.4582 1.35536 1.35547 10.4581 1.35547 21.6861C1.35547 32.9142 10.4582 42.0169 21.6862 42.0169C32.9143 42.0169 42.017 32.9142 42.017 21.6861C42.017 19.5772 41.6951 17.5427 41.0994 15.6289C41.6619 14.8645 42.0177 13.8446 42.017 12.561ZM21.6862 40.3227C11.4097 40.3227 3.0497 31.9627 3.0497 21.6861C3.0497 11.4096 11.4097 3.04959 21.6862 3.04959C26.6402 3.04959 31.1455 4.99593 34.4865 8.16007C33.8549 9.51004 33.3805 11.0267 33.3805 12.561C33.3805 13.1648 33.4591 13.7097 33.6001 14.199C32.2581 14.3907 30.8908 14.2968 29.5877 13.9233C28.2846 13.5498 27.0751 12.9052 26.0384 12.0317C25.7382 11.7681 24.7135 12.8483 25.0815 13.1662C26.3317 14.2216 27.7993 14.9884 29.3797 15.4118C30.9601 15.8353 32.6145 15.905 34.2249 15.616C34.2425 15.6127 34.252 15.595 34.2676 15.5883C35.5315 17.353 37.8946 17.7745 39.6817 16.8481C40.0978 18.3919 40.3228 20.0129 40.3228 21.6861C40.3228 31.9627 31.9621 40.3227 21.6862 40.3227Z" fill="white"/>
</svg>
