<svg width="27" height="27" viewBox="0 0 27 27" fill="none" xmlns="http://www.w3.org/2000/svg">
<path d="M13.1508 9.86856C14.3134 9.86856 15.4284 10.3304 16.2504 11.1525C17.0725 11.9746 17.5344 13.0895 17.5344 14.2521C17.5344 15.4147 17.0725 16.5297 16.2504 17.3518C15.4284 18.1739 14.3134 18.6357 13.1508 18.6357C11.9882 18.6357 10.8732 18.1739 10.0511 17.3518C9.22902 16.5297 8.76718 15.4147 8.76718 14.2521C8.76718 13.0895 9.22902 11.9746 10.0511 11.1525C10.8732 10.3304 11.9882 9.86856 13.1508 9.86856ZM13.1508 6.02744C18.2061 6.02744 22.5711 9.47951 23.7821 14.3168C23.8351 14.5283 23.802 14.7521 23.69 14.9391C23.578 15.1262 23.3963 15.261 23.1848 15.3141C22.9734 15.3671 22.7495 15.334 22.5625 15.222C22.3755 15.11 22.2406 14.9283 22.1875 14.7168C21.6802 12.7042 20.5154 10.9185 18.878 9.64295C17.2405 8.3674 15.2241 7.67498 13.1485 7.67549C11.0729 7.67599 9.05684 8.36938 7.42003 9.64572C5.78321 10.9221 4.61932 12.7083 4.11291 14.7212C4.08679 14.826 4.04029 14.9246 3.97606 15.0114C3.91183 15.0982 3.83114 15.1715 3.73859 15.2271C3.64603 15.2827 3.54343 15.3195 3.43664 15.3355C3.32985 15.3514 3.22096 15.3462 3.11619 15.3201C3.01142 15.294 2.91282 15.2475 2.82602 15.1833C2.73922 15.119 2.66592 15.0383 2.61031 14.9458C2.55469 14.8532 2.51785 14.7506 2.50189 14.6438C2.48593 14.537 2.49116 14.4281 2.51728 14.3234C3.11108 11.953 4.48009 9.84907 6.40674 8.34595C8.33339 6.84283 10.7071 6.02677 13.1508 6.02744Z" fill="black"/>
</svg>
