<svg width="45" height="45" viewBox="0 0 45 45" fill="none" xmlns="http://www.w3.org/2000/svg">
<path fill-rule="evenodd" clip-rule="evenodd" d="M22.1848 37.4367C26.2299 37.4367 30.1093 35.8298 32.9696 32.9695C35.8299 30.1092 37.4368 26.2298 37.4368 22.1847C37.4368 18.1396 35.8299 14.2602 32.9696 11.3999C30.1093 8.5396 26.2299 6.9327 22.1848 6.9327C18.1397 6.9327 14.2603 8.5396 11.4 11.3999C8.53972 14.2602 6.93282 18.1396 6.93282 22.1847C6.93282 26.2298 8.53972 30.1092 11.4 32.9695C14.2603 35.8298 18.1397 37.4367 22.1848 37.4367ZM22.1848 41.5963C27.3331 41.5963 32.2705 39.5511 35.9109 35.9108C39.5513 32.2704 41.5964 27.333 41.5964 22.1847C41.5964 17.0364 39.5513 12.099 35.9109 8.4586C32.2705 4.81822 27.3331 2.77307 22.1848 2.77307C17.0365 2.77307 12.0991 4.81822 8.45872 8.4586C4.81834 12.099 2.77319 17.0364 2.77319 22.1847C2.77319 27.333 4.81834 32.2704 8.45872 35.9108C12.0991 39.5511 17.0365 41.5963 22.1848 41.5963ZM13.1723 25.651C13.1723 25.0994 13.3914 24.5704 13.7814 24.1804C14.1715 23.7903 14.7005 23.5712 15.2521 23.5712H29.1175C29.6691 23.5712 30.1981 23.7903 30.5882 24.1804C30.9782 24.5704 31.1973 25.0994 31.1973 25.651C31.1973 27.5534 30.0049 29.3087 28.4963 30.4928C26.9157 31.7324 24.7305 32.5838 22.1848 32.5838C19.6391 32.5838 17.4539 31.7324 15.8733 30.4928C14.3675 29.3087 13.1723 27.5534 13.1723 25.651ZM27.731 20.7981C27.1794 20.7981 26.6504 20.579 26.2603 20.189C25.8703 19.7989 25.6512 19.2699 25.6512 18.7183V15.9452C25.6512 15.3936 25.8703 14.8646 26.2603 14.4746C26.6504 14.0845 27.1794 13.8654 27.731 13.8654C28.2826 13.8654 28.8116 14.0845 29.2016 14.4746C29.5917 14.8646 29.8108 15.3936 29.8108 15.9452V18.7183C29.8108 19.2699 29.5917 19.7989 29.2016 20.189C28.8116 20.579 28.2826 20.7981 27.731 20.7981ZM14.5588 18.7183C14.5588 19.2699 14.7779 19.7989 15.168 20.189C15.558 20.579 16.087 20.7981 16.6386 20.7981C17.1902 20.7981 17.7192 20.579 18.1093 20.189C18.4993 19.7989 18.7184 19.2699 18.7184 18.7183V15.9452C18.7184 15.3936 18.4993 14.8646 18.1093 14.4746C17.7192 14.0845 17.1902 13.8654 16.6386 13.8654C16.087 13.8654 15.558 14.0845 15.168 14.4746C14.7779 14.8646 14.5588 15.3936 14.5588 15.9452V18.7183Z" fill="white"/>
</svg>
