<svg width="237" height="42" viewBox="0 0 237 42" fill="none" xmlns="http://www.w3.org/2000/svg">
<path d="M18.4971 0.5C28.3833 0.500152 36.4932 9.5215 36.4932 20.7754C36.4932 32.0293 28.3833 41.0506 18.4971 41.0508C8.61073 41.0508 0.5 32.0294 0.5 20.7754C0.500002 9.52141 8.61073 0.5 18.4971 0.5Z" fill="#E0E8F0" stroke="black"/>
<path d="M71.6753 0.5C81.5615 0.500152 89.6714 9.5215 89.6714 20.7754C89.6714 32.0293 81.5615 41.0506 71.6753 41.0508C61.789 41.0508 53.6782 32.0294 53.6782 20.7754C53.6782 9.52141 61.789 0.5 71.6753 0.5Z" fill="#E0E8F0" stroke="black"/>
<path d="M121.771 0.5C131.658 0.500152 139.768 9.5215 139.768 20.7754C139.768 32.0293 131.658 41.0506 121.771 41.0508C111.885 41.0508 103.774 32.0294 103.774 20.7754C103.774 9.52141 111.885 0.5 121.771 0.5Z" fill="#E0E8F0" stroke="black"/>
<path d="M168.783 0.5C178.67 0.500152 186.78 9.5215 186.78 20.7754C186.78 32.0293 178.67 41.0506 168.783 41.0508C158.897 41.0508 150.786 32.0294 150.786 20.7754C150.786 9.52141 158.897 0.5 168.783 0.5Z" fill="#E0E8F0" stroke="black"/>
<path d="M218.108 0.5C227.995 0.500152 236.104 9.5215 236.104 20.7754C236.104 32.0293 227.995 41.0506 218.108 41.0508C208.222 41.0508 200.111 32.0294 200.111 20.7754C200.111 9.52141 208.222 0.5 218.108 0.5Z" fill="#E0E8F0" stroke="black"/>
</svg>
