<svg width="315" height="43" viewBox="0 0 315 43" fill="none" xmlns="http://www.w3.org/2000/svg">
<path d="M24.6113 0.5C37.9961 0.5 48.7227 9.91285 48.7227 21.3818C48.7227 32.8508 37.9961 42.2637 24.6113 42.2637C11.2266 42.2636 0.500006 32.8508 0.5 21.3818C0.5 9.91289 11.2266 0.500068 24.6113 0.5Z" fill="#E0E8F0" stroke="black"/>
<path d="M95.3691 0.5C108.754 0.5 119.48 9.91285 119.48 21.3818C119.48 32.8508 108.754 42.2637 95.3691 42.2637C81.9845 42.2636 71.2578 32.8508 71.2578 21.3818C71.2578 9.91289 81.9845 0.500067 95.3691 0.5Z" fill="#E0E8F0" stroke="black"/>
<path d="M162.025 0.5C175.41 0.5 186.136 9.91285 186.136 21.3818C186.136 32.8508 175.41 42.2637 162.025 42.2637C148.64 42.2636 137.914 32.8508 137.914 21.3818C137.914 9.91289 148.64 0.500068 162.025 0.5Z" fill="#E0E8F0" stroke="black"/>
<path d="M224.579 0.5C237.964 0.5 248.691 9.91285 248.691 21.3818C248.691 32.8508 237.964 42.2637 224.579 42.2637C211.195 42.2636 200.468 32.8508 200.468 21.3818C200.468 9.91289 211.195 0.500067 224.579 0.5Z" fill="#E0E8F0" stroke="black"/>
<path d="M290.21 0.5C303.595 0.5 314.321 9.91285 314.321 21.3818C314.321 32.8508 303.595 42.2637 290.21 42.2637C276.825 42.2636 266.099 32.8508 266.099 21.3818C266.099 9.91289 276.825 0.500068 290.21 0.5Z" fill="#E0E8F0" stroke="black"/>
</svg>
