<svg width="220" height="46" viewBox="0 0 220 46" fill="none" xmlns="http://www.w3.org/2000/svg">
<rect opacity="0.71" x="152" width="68" height="45.1612" rx="13" fill="#D53C25"/>
<path opacity="0.71" d="M0 13C0 5.82031 5.8203 0 13 0H55C62.1797 0 68 5.8203 68 13V32.1612C68 39.3409 62.1797 45.1612 55 45.1612H13C5.8203 45.1612 0 39.3409 0 32.1612V13Z" fill="#9D12D0"/>
<rect opacity="0.71" x="76" width="68" height="45.1612" rx="13" fill="#CDB61F"/>
<path d="M176.635 32.4095C176.635 34.0347 177.965 35.3644 179.59 35.3644H191.41C193.035 35.3644 194.365 34.0347 194.365 32.4095V14.6801H176.635V32.4095ZM195.842 10.2477H190.671L189.193 8.77026H181.806L180.329 10.2477H175.158V13.2026H195.842V10.2477Z" fill="#FFFEFE"/>
</svg>
