<svg width="237" height="42" viewBox="0 0 237 42" fill="none" xmlns="http://www.w3.org/2000/svg">
<path d="M18.4971 0.5C28.387 0.50015 36.4932 9.44828 36.4932 20.6025C36.4931 31.7568 28.387 40.7049 18.4971 40.7051C8.60705 40.7051 0.50003 31.7569 0.5 20.6025C0.5 9.44818 8.60704 0.5 18.4971 0.5Z" fill="#E0E8F0" stroke="black"/>
<path d="M71.6753 0.5C81.5652 0.500151 89.6714 9.44828 89.6714 20.6025C89.6714 31.7568 81.5652 40.7049 71.6753 40.7051C61.7853 40.7051 53.6783 31.7569 53.6782 20.6025C53.6782 9.44818 61.7853 0.5 71.6753 0.5Z" fill="#E0E8F0" stroke="black"/>
<path d="M121.771 0.5C131.661 0.50015 139.768 9.44828 139.768 20.6025C139.768 31.7568 131.661 40.7049 121.771 40.7051C111.881 40.7051 103.774 31.7569 103.774 20.6025C103.774 9.44818 111.881 0.5 121.771 0.5Z" fill="#E0E8F0" stroke="black"/>
<path d="M168.784 0.5C178.674 0.500151 186.78 9.44828 186.78 20.6025C186.78 31.7568 178.674 40.7049 168.784 40.7051C158.894 40.7051 150.787 31.7569 150.787 20.6025C150.787 9.44818 158.894 0.5 168.784 0.5Z" fill="#E0E8F0" stroke="black"/>
<path d="M218.108 0.5C227.998 0.50015 236.104 9.44828 236.104 20.6025C236.104 31.7568 227.998 40.7049 218.108 40.7051C208.218 40.7051 200.111 31.7569 200.111 20.6025C200.111 9.44818 208.218 0.5 218.108 0.5Z" fill="#E0E8F0" stroke="black"/>
</svg>
