<svg width="220" height="46" viewBox="0 0 220 46" fill="none" xmlns="http://www.w3.org/2000/svg">
<rect opacity="0.71" x="152" width="68" height="45.5402" rx="13" fill="#D53C25"/>
<path opacity="0.71" d="M0 13C0 5.82031 5.8203 0 13 0H55C62.1797 0 68 5.8203 68 13V32.5402C68 39.7199 62.1797 45.5402 55 45.5402H13C5.8203 45.5402 0 39.7199 0 32.5402V13Z" fill="#9D12D0"/>
<rect opacity="0.71" x="76" width="68" height="45.5402" rx="13" fill="#CDB61F"/>
<path d="M176.598 32.6379C176.598 34.2699 177.933 35.6051 179.565 35.6051H191.435C193.067 35.6051 194.402 34.2699 194.402 32.6379V14.8342H176.598V32.6379ZM195.885 10.3833H190.693L189.209 8.89966H181.791L180.307 10.3833H175.115V13.3506H195.885V10.3833Z" fill="#FFFEFE"/>
</svg>
