<svg width="37" height="38" viewBox="0 0 37 38" fill="none" xmlns="http://www.w3.org/2000/svg">
<path fill-rule="evenodd" clip-rule="evenodd" d="M18.4009 0C28.5637 0 36.8017 8.34652 36.8017 18.6431C36.8017 28.9397 28.5637 37.2862 18.4009 37.2862C8.23807 37.2862 0 28.9397 0 18.6431C0 8.34652 8.23807 0 18.4009 0ZM18.4009 3.72862C14.4967 3.72862 10.7524 5.29997 7.99176 8.09697C5.2311 10.894 3.68017 14.6875 3.68017 18.6431C3.68017 22.5987 5.2311 26.3922 7.99176 29.1892C10.7524 31.9863 14.4967 33.5576 18.4009 33.5576C22.305 33.5576 26.0493 31.9863 28.81 29.1892C31.5706 26.3922 33.1216 22.5987 33.1216 18.6431C33.1216 14.6875 31.5706 10.894 28.81 8.09697C26.0493 5.29997 22.305 3.72862 18.4009 3.72862ZM18.4009 20.5074C20.7323 20.5074 22.8668 21.3892 24.4879 22.8378C24.8539 23.1651 25.0766 23.6264 25.1069 24.12C25.1373 24.6137 24.9729 25.0994 24.6498 25.4702C24.3267 25.8411 23.8715 26.0667 23.3842 26.0974C22.897 26.1282 22.4176 25.9616 22.0516 25.6343C21.0433 24.7334 19.7452 24.2362 18.4009 24.236C17.0006 24.236 15.7235 24.7618 14.7501 25.6343C14.5689 25.7962 14.358 25.9204 14.1294 25.9998C13.9007 26.0791 13.6589 26.1121 13.4178 26.0968C13.1766 26.0815 12.9407 26.0182 12.7237 25.9105C12.5067 25.8028 12.3127 25.6529 12.1529 25.4693C11.993 25.2857 11.8704 25.0719 11.7921 24.8403C11.7138 24.6087 11.6812 24.3637 11.6964 24.1194C11.7115 23.875 11.774 23.6361 11.8802 23.4162C11.9865 23.1963 12.1345 22.9998 12.3157 22.8378C13.9963 21.3361 16.1601 20.5075 18.4009 20.5074ZM11.9606 11.1859C12.6926 11.1859 13.3946 11.4805 13.9123 12.0049C14.4299 12.5294 14.7207 13.2407 14.7207 13.9823C14.7207 14.724 14.4299 15.4353 13.9123 15.9597C13.3946 16.4842 12.6926 16.7788 11.9606 16.7788C11.2285 16.7788 10.5265 16.4842 10.0089 15.9597C9.49123 15.4353 9.20043 14.724 9.20043 13.9823C9.20043 13.2407 9.49123 12.5294 10.0089 12.0049C10.5265 11.4805 11.2285 11.1859 11.9606 11.1859ZM24.8412 11.1859C25.5732 11.1859 26.2752 11.4805 26.7929 12.0049C27.3105 12.5294 27.6013 13.2407 27.6013 13.9823C27.6013 14.724 27.3105 15.4353 26.7929 15.9597C26.2752 16.4842 25.5732 16.7788 24.8412 16.7788C24.1091 16.7788 23.4071 16.4842 22.8895 15.9597C22.3718 15.4353 22.081 14.724 22.081 13.9823C22.081 13.2407 22.3718 12.5294 22.8895 12.0049C23.4071 11.4805 24.1091 11.1859 24.8412 11.1859Z" fill="white"/>
</svg>
