<svg width="29" height="29" viewBox="0 0 29 29" fill="none" xmlns="http://www.w3.org/2000/svg">
<path d="M18.7292 16.9167H17.7746L17.4363 16.5904C18.6614 15.1695 19.3348 13.3554 19.3333 11.4792C19.3333 9.92576 18.8727 8.40724 18.0097 7.11563C17.1466 5.82402 15.92 4.81733 14.4848 4.22287C13.0497 3.6284 11.4705 3.47286 9.9469 3.77592C8.42334 4.07897 7.02386 4.82701 5.92544 5.92544C4.82701 7.02386 4.07897 8.42334 3.77592 9.9469C3.47286 11.4705 3.6284 13.0497 4.22287 14.4848C4.81733 15.92 5.82402 17.1466 7.11563 18.0097C8.40724 18.8727 9.92576 19.3333 11.4792 19.3333C13.4246 19.3333 15.2129 18.6204 16.5904 17.4363L16.9167 17.7746V18.7292L22.9583 24.7588L24.7588 22.9583L18.7292 16.9167ZM11.4792 16.9167C8.47042 16.9167 6.04167 14.4879 6.04167 11.4792C6.04167 8.47042 8.47042 6.04167 11.4792 6.04167C14.4879 6.04167 16.9167 8.47042 16.9167 11.4792C16.9167 14.4879 14.4879 16.9167 11.4792 16.9167Z" fill="white"/>
</svg>
