<svg width="24" height="24" viewBox="0 0 24 24" fill="none" xmlns="http://www.w3.org/2000/svg">
<path d="M12.0001 17.275L7.85008 19.775C7.66675 19.8917 7.47508 19.9417 7.27508 19.925C7.07508 19.9083 6.90008 19.8417 6.75008 19.725C6.60008 19.6083 6.48342 19.4627 6.40008 19.288C6.31675 19.1133 6.30008 18.9173 6.35008 18.7L7.45008 13.975L3.77508 10.8C3.60842 10.65 3.50442 10.479 3.46308 10.287C3.42175 10.095 3.43408 9.90768 3.50008 9.72501C3.56608 9.54235 3.66608 9.39235 3.80008 9.27501C3.93408 9.15768 4.11742 9.08268 4.35008 9.05001L9.20008 8.62501L11.0751 4.17501C11.1584 3.97501 11.2878 3.82501 11.4631 3.72501C11.6384 3.62501 11.8174 3.57501 12.0001 3.57501C12.1828 3.57501 12.3618 3.62501 12.5371 3.72501C12.7124 3.82501 12.8418 3.97501 12.9251 4.17501L14.8001 8.62501L19.6501 9.05001C19.8834 9.08335 20.0668 9.15835 20.2001 9.27501C20.3334 9.39168 20.4334 9.54168 20.5001 9.72501C20.5668 9.90835 20.5794 10.096 20.5381 10.288C20.4968 10.48 20.3924 10.6507 20.2251 10.8L16.5501 13.975L17.6501 18.7C17.7001 18.9167 17.6834 19.1127 17.6001 19.288C17.5168 19.4633 17.4001 19.609 17.2501 19.725C17.1001 19.841 16.9251 19.9077 16.7251 19.925C16.5251 19.9423 16.3334 19.8923 16.1501 19.775L12.0001 17.275Z" fill="black"/>
</svg>
