<svg width="50" height="50" viewBox="0 0 50 50" fill="none" xmlns="http://www.w3.org/2000/svg">
<path d="M24.6773 4.11292C36.035 4.11292 45.2417 13.3196 45.2417 24.6774C45.2417 36.0351 36.035 45.2418 24.6773 45.2418C13.3195 45.2418 4.11279 36.0351 4.11279 24.6774C4.11279 13.3196 13.3195 4.11292 24.6773 4.11292ZM24.6773 8.22581C20.314 8.22581 16.1295 9.95909 13.0442 13.0444C9.95897 16.1296 8.22569 20.3142 8.22569 24.6774C8.22569 29.0406 9.95897 33.2251 13.0442 36.3104C16.1295 39.3957 20.314 41.129 24.6773 41.129C29.0405 41.129 33.225 39.3957 36.3103 36.3104C39.3955 33.2251 41.1288 29.0406 41.1288 24.6774C41.1288 20.3142 39.3955 16.1296 36.3103 13.0444C33.225 9.95909 29.0405 8.22581 24.6773 8.22581ZM24.6773 26.7338C27.2848 26.7338 29.6683 27.7065 31.48 29.3044C31.889 29.6654 32.1379 30.1742 32.1718 30.7188C32.2058 31.2633 32.022 31.799 31.661 32.2081C31.2999 32.6171 30.7911 32.866 30.2466 32.8999C29.702 32.9339 29.1663 32.7501 28.7572 32.3891C27.6304 31.3953 26.1797 30.8469 24.6773 30.8467C23.1123 30.8467 21.6851 31.4266 20.5973 32.3891C20.3947 32.5677 20.159 32.7047 19.9035 32.7922C19.648 32.8798 19.3778 32.9161 19.1082 32.8992C18.8387 32.8823 18.5751 32.8125 18.3326 32.6937C18.09 32.575 17.8732 32.4096 17.6946 32.2071C17.516 32.0045 17.379 31.7688 17.2914 31.5133C17.2039 31.2578 17.1675 30.9876 17.1844 30.718C17.2013 30.4485 17.2712 30.1849 17.3899 29.9424C17.5087 29.6998 17.674 29.483 17.8766 29.3044C19.7548 27.648 22.173 26.7339 24.6773 26.7338ZM17.1507 16.575L17.3707 16.6696L21.4836 18.726C21.9531 18.9605 22.3153 19.3655 22.4958 19.8583C22.6764 20.351 22.6618 20.8942 22.4549 21.3765C22.2481 21.8588 21.8647 22.2437 21.3832 22.4525C20.9017 22.6614 20.3586 22.6782 19.8652 22.4996L19.6451 22.403L15.5322 20.3465C15.0827 20.1202 14.7318 19.7369 14.546 19.2692C14.3601 18.8015 14.3522 18.2818 14.5238 17.8087C14.6954 17.3356 15.0345 16.9418 15.4769 16.7019C15.9193 16.462 16.4344 16.3927 16.9245 16.5071L17.1507 16.5729V16.575ZM31.9838 16.6696C32.4527 16.4367 32.9928 16.3915 33.4939 16.5431C33.995 16.6946 34.4195 17.0316 34.6807 17.4854C34.9419 17.9391 35.0202 18.4754 34.8997 18.9848C34.7792 19.4943 34.4689 19.9386 34.032 20.2272L33.8223 20.3465L29.7094 22.403C29.2405 22.6358 28.7004 22.6811 28.1993 22.5295C27.6982 22.3779 27.2737 22.0409 27.0125 21.5872C26.7513 21.1334 26.673 20.5972 26.7935 20.0877C26.914 19.5782 27.2243 19.1339 27.6612 18.8453L27.8709 18.726L31.9838 16.6696Z" fill="white"/>
</svg>
