<svg width="49" height="49" viewBox="0 0 49 49" fill="none" xmlns="http://www.w3.org/2000/svg">
<path d="M18.0152 31.026H30.0252M19.016 21.0176V20.0167M29.0244 21.0176V20.0167M42.0353 24.0201C42.0353 26.3859 41.5693 28.7285 40.664 30.9142C39.7586 33.0999 38.4317 35.0858 36.7588 36.7587C35.0859 38.4315 33.1 39.7585 30.9143 40.6639C28.7286 41.5692 26.386 42.0352 24.0202 42.0352C21.6544 42.0352 19.3118 41.5692 17.1261 40.6639C14.9404 39.7585 12.9545 38.4315 11.2816 36.7587C9.60877 35.0858 8.28179 33.0999 7.37644 30.9142C6.4711 28.7285 6.00513 26.3859 6.00513 24.0201C6.00513 19.2422 7.90314 14.66 11.2816 11.2815C14.6601 7.90302 19.2423 6.005 24.0202 6.005C28.7981 6.005 33.3803 7.90302 36.7588 11.2815C40.1373 14.66 42.0353 19.2422 42.0353 24.0201Z" stroke="white" stroke-width="4" stroke-linecap="round" stroke-linejoin="round"/>
</svg>
