<svg width="582" height="209" viewBox="0 0 582 209" fill="none" xmlns="http://www.w3.org/2000/svg">
<path d="M46.0415 115.544L0.869611 146.493C0.325355 146.865 0 147.483 0 148.142V208.541H582V151.455C582 148.162 581.521 144.886 580.579 141.73L544.829 21.9666C543.953 19.0326 542.645 16.2457 540.946 13.6981C527.833 -5.96663 498.364 -4.1139 487.817 17.0384L458.183 76.4695C455.646 81.5594 451.814 85.8925 447.073 89.0342C440.275 93.539 432.03 95.3179 423.979 94.0165L423.595 93.9544C418.169 93.0774 413.043 90.8762 408.671 87.5458L387.568 71.4712C374.171 61.2658 355.321 62.4066 343.252 74.1532L305.839 110.566C301.495 114.794 295.673 117.16 289.611 117.16C284.415 117.16 279.368 115.42 275.275 112.218L254.863 96.2494C241.633 85.8991 222.827 86.7618 210.6 98.28L202.545 105.868C198.837 109.36 194.392 111.975 189.538 113.52L187.022 114.32C181.201 116.172 174.962 116.26 169.092 114.573C161.494 112.39 155.02 107.383 150.996 100.579L133.811 71.518C120.564 49.1148 88.0847 49.2961 75.0879 71.8459L56.2824 104.474C53.7405 108.884 50.2408 112.667 46.0415 115.544Z" fill="url(#paint0_linear_434_487)"/>
<defs>
<linearGradient id="paint0_linear_434_487" x1="256.834" y1="-31.5461" x2="265.232" y2="251.459" gradientUnits="userSpaceOnUse">
<stop offset="0.375" stop-color="#2186B9"/>
<stop offset="1" stop-color="#D9D9D9" stop-opacity="0"/>
</linearGradient>
</defs>
</svg>
